<svg width="29" height="29" viewBox="0 0 29 29" fill="none" xmlns="http://www.w3.org/2000/svg">
<rect width="29" height="29" rx="5" fill="#F6F6F6"/>
<path d="M15.1333 9.61379C15.1898 9.61379 15.2463 9.61379 15.3099 9.62086V7.52982C15.3099 7.24019 15.0697 7 14.7801 7C14.4905 7 14.2503 7.24019 14.2503 7.52982V9.62086C14.3068 9.61379 14.3633 9.61379 14.4269 9.61379C11.1702 9.77627 8.57764 12.4607 8.57764 15.7597V17.1302C8.57764 17.9073 9.21342 18.5431 9.9905 18.5431H19.5697C20.3468 18.5431 20.9826 17.9073 20.9826 17.1302V15.7597C20.9826 12.4607 18.39 9.77627 15.1333 9.61379Z" fill="#FF6600"/>
<path d="M16.7074 19.2411C16.9405 19.2411 17.11 19.4601 17.0535 19.6862C16.7851 20.6964 15.8667 21.4381 14.7788 21.4381C13.6909 21.4381 12.7725 20.6964 12.5041 19.6862C12.4476 19.4601 12.6171 19.2411 12.8503 19.2411H16.7074Z" fill="#FF6600"/>
</svg>
