<svg width="29" height="29" viewBox="0 0 29 29" fill="none" xmlns="http://www.w3.org/2000/svg">
<rect width="29" height="29" rx="5" fill="#F6F6F6"/>
<path d="M19.8451 12.2488C19.1944 9.31902 16.6969 8 14.5031 8C14.5031 8 14.5031 8 14.4969 8C12.3093 8 9.80562 9.31268 9.15492 12.2424C8.42984 15.5146 10.3882 18.2859 12.1606 20.0298C12.8175 20.6766 13.6603 21 14.5031 21C15.3459 21 16.1887 20.6766 16.8394 20.0298C18.6118 18.2859 20.5702 15.521 19.8451 12.2488ZM14.5031 15.4259C13.4248 15.4259 12.551 14.5317 12.551 13.4283C12.551 12.3249 13.4248 11.4307 14.5031 11.4307C15.5814 11.4307 16.4552 12.3249 16.4552 13.4283C16.4552 14.5317 15.5814 15.4259 14.5031 15.4259Z" fill="#FF6600"/>
</svg>
