<svg width="29" height="29" viewBox="0 0 29 29" fill="none" xmlns="http://www.w3.org/2000/svg">
<rect width="29" height="29" rx="5" fill="#F6F6F6"/>
<path d="M21.7678 10.4647C21.3198 8.94562 20.0528 7.67858 18.5337 7.23057C17.3787 6.89456 16.5807 6.92256 16.0277 7.33557C15.3626 7.83259 15.2856 8.72861 15.2856 9.36563V11.1087C15.2856 12.8307 16.0697 13.7058 17.6097 13.7058H19.6188C20.2488 13.7058 21.1518 13.6288 21.6488 12.9637C22.0758 12.4177 22.1108 11.6197 21.7678 10.4647Z" fill="#FF6600"/>
<path d="M19.8356 14.953C19.6536 14.743 19.3876 14.624 19.1145 14.624H16.6085C15.3764 14.624 14.3754 13.623 14.3754 12.3909V9.88484C14.3754 9.61183 14.2564 9.34583 14.0464 9.16382C13.8434 8.98182 13.5634 8.89781 13.2974 8.93281C11.6523 9.14282 10.1403 10.0458 9.15325 11.4039C8.15922 12.7689 7.79521 14.435 8.11022 16.101C8.56524 18.5091 10.4903 20.4342 12.9054 20.8892C13.2904 20.9662 13.6754 21.0012 14.0604 21.0012C15.3274 21.0012 16.5525 20.6092 17.5955 19.8461C18.9535 18.8591 19.8566 17.3471 20.0666 15.702C20.1016 15.429 20.0176 15.156 19.8356 14.953Z" fill="#FF6600"/>
</svg>
