<svg width="17" height="20" viewBox="0 0 17 20" fill="none" xmlns="http://www.w3.org/2000/svg">
<path fill-rule="evenodd" clip-rule="evenodd" d="M4.43099 5.87776C4.43099 4.59748 4.78505 3.64233 5.36906 3.01349C5.94567 2.39261 6.82951 2.00006 8.07962 2.00006C9.33041 2.00006 10.213 2.39183 10.7882 3.0113C11.3709 3.6388 11.7241 4.59273 11.7241 5.87371V7.85947H4.43099V5.87776ZM2.93099 7.85947V5.87776C2.93099 4.32924 3.36185 2.97054 4.26995 1.99273C5.18544 1.00696 6.50091 0.500061 8.07962 0.500061C9.65798 0.500061 10.9727 1.00555 11.8874 1.99061C12.7947 2.96766 13.2241 4.32555 13.2241 5.87371V7.85947H14.9052C15.5956 7.85947 16.1552 8.41912 16.1552 9.10947V18.3681C16.1552 19.0585 15.5956 19.6181 14.9052 19.6181H1.25C0.559643 19.6181 0 19.0585 0 18.3681V9.10947C0 8.41912 0.559645 7.85947 1.25 7.85947H2.93099ZM1.5 18.1181V9.35947H14.6552V18.1181H1.5Z" fill="#FF6600"/>
</svg>
