<svg width="29" height="29" viewBox="0 0 29 29" fill="none" xmlns="http://www.w3.org/2000/svg">
<rect width="29" height="29" rx="5" fill="#F6F6F6"/>
<path d="M20.75 19.8283H8.46084C8.20892 19.8283 8 20.0372 8 20.2892C8 20.5411 8.20892 20.75 8.46084 20.75H20.75C21.0019 20.75 21.2108 20.5411 21.2108 20.2892C21.2108 20.0372 21.0019 19.8283 20.75 19.8283Z" fill="#FF6600"/>
<path d="M17.6776 8H11.533C9.68965 8 9.0752 9.09988 9.0752 10.4578V20.2892H20.1354V10.4578C20.1354 9.09988 19.521 8 17.6776 8ZM13.3764 17.3705H11.533C11.2811 17.3705 11.0722 17.1616 11.0722 16.9096C11.0722 16.6577 11.2811 16.4488 11.533 16.4488H13.3764C13.6283 16.4488 13.8372 16.6577 13.8372 16.9096C13.8372 17.1616 13.6283 17.3705 13.3764 17.3705ZM13.3764 14.6054H11.533C11.2811 14.6054 11.0722 14.3965 11.0722 14.1446C11.0722 13.8927 11.2811 13.6837 11.533 13.6837H13.3764C13.6283 13.6837 13.8372 13.8927 13.8372 14.1446C13.8372 14.3965 13.6283 14.6054 13.3764 14.6054ZM13.3764 11.8404H11.533C11.2811 11.8404 11.0722 11.6314 11.0722 11.3795C11.0722 11.1276 11.2811 10.9187 11.533 10.9187H13.3764C13.6283 10.9187 13.8372 11.1276 13.8372 11.3795C13.8372 11.6314 13.6283 11.8404 13.3764 11.8404ZM17.6776 17.3705H15.8342C15.5823 17.3705 15.3734 17.1616 15.3734 16.9096C15.3734 16.6577 15.5823 16.4488 15.8342 16.4488H17.6776C17.9295 16.4488 18.1384 16.6577 18.1384 16.9096C18.1384 17.1616 17.9295 17.3705 17.6776 17.3705ZM17.6776 14.6054H15.8342C15.5823 14.6054 15.3734 14.3965 15.3734 14.1446C15.3734 13.8927 15.5823 13.6837 15.8342 13.6837H17.6776C17.9295 13.6837 18.1384 13.8927 18.1384 14.1446C18.1384 14.3965 17.9295 14.6054 17.6776 14.6054ZM17.6776 11.8404H15.8342C15.5823 11.8404 15.3734 11.6314 15.3734 11.3795C15.3734 11.1276 15.5823 10.9187 15.8342 10.9187H17.6776C17.9295 10.9187 18.1384 11.1276 18.1384 11.3795C18.1384 11.6314 17.9295 11.8404 17.6776 11.8404Z" fill="#FF6600"/>
</svg>
