<svg width="64" height="64" viewBox="0 0 64 64" fill="none" xmlns="http://www.w3.org/2000/svg">
<circle cx="32" cy="32" r="32" fill="#FF6600"/>
<path d="M44.2174 27.6237C42.73 21.1847 37.0215 18.2857 32.0071 18.2857C32.0071 18.2857 32.0071 18.2857 31.9929 18.2857C26.9927 18.2857 21.27 21.1707 19.7827 27.6097C18.1254 34.8014 22.6015 40.892 26.6527 44.7247C28.1542 46.1463 30.0807 46.8571 32.0071 46.8571C33.9335 46.8571 35.86 46.1463 37.3473 44.7247C41.3985 40.892 45.8747 34.8153 44.2174 27.6237ZM32.0071 34.6063C29.5424 34.6063 27.5451 32.6411 27.5451 30.216C27.5451 27.7909 29.5424 25.8258 32.0071 25.8258C34.4718 25.8258 36.4691 27.7909 36.4691 30.216C36.4691 32.6411 34.4718 34.6063 32.0071 34.6063Z" fill="white"/>
</svg>
