<svg width="29" height="29" viewBox="0 0 29 29" fill="none" xmlns="http://www.w3.org/2000/svg">
<rect width="29" height="29" rx="5" fill="#F6F6F6"/>
<path d="M17.6667 7H12.3333C10 7 9 8.4 9 10.5V17.5C9 19.6 10 21 12.3333 21H17.6667C20 21 21 19.6 21 17.5V10.5C21 8.4 20 7 17.6667 7ZM12.3333 14.175H15C15.2733 14.175 15.5 14.413 15.5 14.7C15.5 14.987 15.2733 15.225 15 15.225H12.3333C12.06 15.225 11.8333 14.987 11.8333 14.7C11.8333 14.413 12.06 14.175 12.3333 14.175ZM17.6667 18.025H12.3333C12.06 18.025 11.8333 17.787 11.8333 17.5C11.8333 17.213 12.06 16.975 12.3333 16.975H17.6667C17.94 16.975 18.1667 17.213 18.1667 17.5C18.1667 17.787 17.94 18.025 17.6667 18.025ZM19.3333 12.075H18C16.9867 12.075 16.1667 11.214 16.1667 10.15V8.75C16.1667 8.463 16.3933 8.225 16.6667 8.225C16.94 8.225 17.1667 8.463 17.1667 8.75V10.15C17.1667 10.633 17.54 11.025 18 11.025H19.3333C19.6067 11.025 19.8333 11.263 19.8333 11.55C19.8333 11.837 19.6067 12.075 19.3333 12.075Z" fill="#FF6600"/>
</svg>
