<svg width="25" height="25" viewBox="0 0 25 25" fill="none" xmlns="http://www.w3.org/2000/svg">
<path d="M12.5132 2.96939C9.00031 2.96939 6.1454 5.82431 6.1454 9.33723V12.4044C6.1454 13.0518 5.86946 14.0388 5.54045 14.5907L4.31995 16.6178C3.56642 17.8701 4.08646 19.2605 5.46616 19.7274C10.0404 21.2557 14.9755 21.2557 19.5497 19.7274C20.8339 19.3029 21.3964 17.7852 20.6959 16.6178L19.4754 14.5907C19.157 14.0388 18.8811 13.0518 18.8811 12.4044V9.33723C18.8811 5.83492 16.0156 2.96939 12.5132 2.96939Z" stroke="#292D32" stroke-width="1.5" stroke-miterlimit="10" stroke-linecap="round"/>
<path d="M14.4768 3.27719C14.1478 3.18167 13.8081 3.10738 13.4579 3.06493C12.4391 2.93757 11.4627 3.01186 10.5499 3.27719C10.8577 2.49182 11.6218 1.93994 12.5133 1.93994C13.4048 1.93994 14.169 2.49182 14.4768 3.27719Z" stroke="#292D32" stroke-width="1.5" stroke-miterlimit="10" stroke-linecap="round" stroke-linejoin="round"/>
<path d="M15.6972 20.1096C15.6972 21.8608 14.2644 23.2936 12.5133 23.2936C11.643 23.2936 10.8364 22.9327 10.2633 22.3596C9.69019 21.7865 9.32935 20.9799 9.32935 20.1096" stroke="#292D32" stroke-width="1.5" stroke-miterlimit="10"/>
</svg>
