<svg width="21" height="23" viewBox="0 0 21 23" fill="none" xmlns="http://www.w3.org/2000/svg">
<path d="M7.66052 14.2944L9.24386 15.8777L13.4661 11.6555" stroke="#292D32" stroke-width="1.5" stroke-linecap="round" stroke-linejoin="round"/>
<path d="M8.38894 5.11111H12.6112C14.7223 5.11111 14.7223 4.05555 14.7223 3C14.7223 0.888885 13.6667 0.888885 12.6112 0.888885H8.38894C7.33339 0.888885 6.27783 0.888885 6.27783 3C6.27783 5.11111 7.33339 5.11111 8.38894 5.11111Z" stroke="#292D32" stroke-width="1.5" stroke-miterlimit="10" stroke-linecap="round" stroke-linejoin="round"/>
<path d="M14.7222 3.02112C18.2372 3.21112 20 4.50945 20 9.33334V15.6667C20 19.8889 18.9444 22 13.6667 22H7.33333C2.05556 22 1 19.8889 1 15.6667V9.33334C1 4.52001 2.76278 3.21112 6.27778 3.02112" stroke="#292D32" stroke-width="1.5" stroke-miterlimit="10" stroke-linecap="round" stroke-linejoin="round"/>
</svg>
