<svg width="17" height="24" viewBox="0 0 17 24" fill="none" xmlns="http://www.w3.org/2000/svg">
<path d="M8.31468 11.0679C8.20735 11.0572 8.07856 11.0572 7.96049 11.0679C5.406 10.9821 3.37744 8.8891 3.37744 6.31315C3.37744 3.68353 5.5026 1.54764 8.14295 1.54764C10.7726 1.54764 12.9085 3.68353 12.9085 6.31315C12.8977 8.8891 10.8692 10.9821 8.31468 11.0679Z" stroke="#292D32" stroke-width="1.5" stroke-linecap="round" stroke-linejoin="round"/>
<path d="M2.94806 15.0285C0.350645 16.7672 0.350645 19.6008 2.94806 21.3288C5.89968 23.3037 10.7403 23.3037 13.6919 21.3288C16.2894 19.59 16.2894 16.7565 13.6919 15.0285C10.7511 13.0643 5.91041 13.0643 2.94806 15.0285Z" stroke="#292D32" stroke-width="1.5" stroke-linecap="round" stroke-linejoin="round"/>
</svg>
