<svg width="29" height="29" viewBox="0 0 29 29" fill="none" xmlns="http://www.w3.org/2000/svg">
<rect width="29" height="29" rx="5" fill="#F6F6F6"/>
<path d="M16.8737 8.51903V11.5571H15.6745V8.51903C15.6745 8.30317 15.4826 8.19924 15.3547 8.19924C15.3147 8.19924 15.2747 8.20723 15.2348 8.22322L8.89479 10.6137C8.47106 10.7736 8.19924 11.1733 8.19924 11.6291V12.1647C7.4717 12.7084 7 13.5798 7 14.5632V11.6291C7 10.6777 7.58363 9.8302 8.47106 9.49441L14.819 7.09594C14.9949 7.03198 15.1788 7 15.3547 7C16.1542 7 16.8737 7.64759 16.8737 8.51903Z" fill="#FF6600"/>
<path d="M22.1907 16.953V17.7525C22.1907 17.9684 22.0228 18.1443 21.799 18.1523H20.6317C20.208 18.1523 19.8242 17.8405 19.7922 17.4247C19.7682 17.1769 19.8642 16.945 20.0241 16.7851C20.168 16.6332 20.3679 16.5533 20.5837 16.5533H21.791C22.0228 16.5613 22.1907 16.7372 22.1907 16.953Z" fill="#FF6600"/>
<path d="M20.5754 15.7138H21.3908C21.8306 15.7138 22.1903 15.3541 22.1903 14.9143V14.5626C22.1903 12.9076 20.8392 11.5565 19.1842 11.5565H10.0061C9.32652 11.5565 8.70292 11.7803 8.19924 12.1641C7.4717 12.7077 7 13.5792 7 14.5626V19.9431C7 21.5981 8.35114 22.9492 10.0061 22.9492H19.1842C20.8392 22.9492 22.1903 21.5981 22.1903 19.9431V19.7912C22.1903 19.3515 21.8306 18.9917 21.3908 18.9917H20.6953C19.9278 18.9917 19.1922 18.52 18.9924 17.7765C18.8245 17.1689 19.0243 16.5853 19.4241 16.1935C19.7199 15.8897 20.1276 15.7138 20.5754 15.7138ZM16.1941 15.5539H10.5977C10.2699 15.5539 9.99809 15.2821 9.99809 14.9543C9.99809 14.6265 10.2699 14.3547 10.5977 14.3547H16.1941C16.5219 14.3547 16.7938 14.6265 16.7938 14.9543C16.7938 15.2821 16.5219 15.5539 16.1941 15.5539Z" fill="#FF6600"/>
</svg>
