<svg width="17" height="17" viewBox="0 0 17 17" fill="none" xmlns="http://www.w3.org/2000/svg">
<path fill-rule="evenodd" clip-rule="evenodd" d="M1.5 8.03865C1.5 11.8376 4.25298 14.4263 7.34883 14.9624C7.75697 15.0331 8.03055 15.4212 7.95988 15.8294C7.88921 16.2375 7.50105 16.5111 7.09291 16.4404C3.37375 15.7964 -1.71841e-07 12.6603 -3.73859e-07 8.03865C-4.60089e-07 6.06595 0.898014 4.51843 1.93917 3.34689C2.59589 2.60793 3.3364 1.99118 3.9698 1.50009L2.20402 1.50009C1.7898 1.50009 1.45402 1.1643 1.45402 0.75009C1.45402 0.335876 1.7898 8.95672e-05 2.20402 8.9549e-05L5.99704 8.93832e-05C6.41125 8.93651e-05 6.74704 0.335876 6.74704 0.750089L6.74704 4.54311C6.74704 4.95733 6.41125 5.29311 5.99704 5.29311C5.58283 5.29311 5.24704 4.95733 5.24704 4.54311L5.24704 2.41273C4.55986 2.9326 3.7606 3.55541 3.06038 4.34332C2.16588 5.34985 1.5 6.55729 1.5 8.03865ZM15.3618 8.55268C15.3618 4.79377 12.6672 2.22038 9.61123 1.64666C9.20413 1.57024 8.93607 1.17826 9.01249 0.771159C9.08892 0.364057 9.4809 0.0959907 9.888 0.172418C13.5594 0.861664 16.8618 3.98059 16.8618 8.55268C16.8618 10.5254 15.9638 12.0729 14.9227 13.2444C14.2658 13.9836 13.5251 14.6004 12.8916 15.0916L14.6578 15.0916C15.072 15.0916 15.4078 15.4273 15.4078 15.8416C15.4078 16.2558 15.072 16.5916 14.6578 16.5916L10.8648 16.5916C10.4506 16.5916 10.1148 16.2558 10.1148 15.8416L10.1148 12.0485C10.1148 11.6343 10.4506 11.2985 10.8648 11.2985C11.279 11.2985 11.6148 11.6343 11.6148 12.0485L11.6148 14.1786C12.302 13.6587 13.1012 13.0359 13.8015 12.248C14.696 11.2415 15.3618 10.034 15.3618 8.55268Z" fill="#FF6600"/>
</svg>
