<svg width="40" height="40" viewBox="0 0 40 40" fill="none" xmlns="http://www.w3.org/2000/svg">
<path fill-rule="evenodd" clip-rule="evenodd" d="M20 10.75C14.8914 10.75 10.75 14.8914 10.75 20C10.75 21.9987 11.3833 23.8485 12.461 25.361C13.6056 23.6825 15.2625 22.422 17.1016 21.7635C15.9754 20.8949 15.25 19.5322 15.25 18C15.25 15.3766 17.3766 13.25 20 13.25C22.6234 13.25 24.75 15.3766 24.75 18C24.75 19.5322 24.0246 20.8949 22.8985 21.7635C24.7375 22.422 26.3945 23.6824 27.5391 25.3609C28.6167 23.8484 29.25 21.9987 29.25 20C29.25 14.8914 25.1086 10.75 20 10.75ZM26.5253 26.5562C25.1028 24.2118 22.5331 22.75 20.0001 22.75C17.467 22.75 14.8973 24.2119 13.4748 26.5562C15.1483 28.2219 17.4534 29.25 20 29.25C22.5466 29.25 24.8518 28.2218 26.5253 26.5562ZM9.25 20C9.25 14.0629 14.0629 9.25 20 9.25C25.9371 9.25 30.75 14.0629 30.75 20C30.75 22.9019 29.5992 25.5365 27.7307 27.4699C25.7769 29.4915 23.0348 30.75 20 30.75C16.9652 30.75 14.2231 29.4915 12.2693 27.4699C10.4008 25.5365 9.25 22.9019 9.25 20ZM20 14.75C18.2051 14.75 16.75 16.2051 16.75 18C16.75 19.7949 18.2051 21.25 20 21.25C21.7949 21.25 23.25 19.7949 23.25 18C23.25 16.2051 21.7949 14.75 20 14.75Z" fill="#FF6600"/>
</svg>
